<svg width="18" height="26" viewBox="0 0 18 26" fill="none" xmlns="http://www.w3.org/2000/svg">
<path d="M0.333313 21.6666C0.333313 19.2734 2.27343 17.3333 4.66665 17.3333H8.99998V21.6666C8.99998 24.0599 7.05986 26 4.66665 26C2.27343 26 0.333313 24.0599 0.333313 21.6666Z" fill="#24CB71"/>
<path d="M9 0V8.66667H13.3333C15.7265 8.66667 17.6667 6.72655 17.6667 4.33333C17.6667 1.94012 15.7265 0 13.3333 0H9Z" fill="#FF7237"/>
<path d="M13.2973 17.3334C15.6905 17.3334 17.6306 15.3933 17.6306 13C17.6306 10.6068 15.6905 8.66669 13.2973 8.66669C10.904 8.66669 8.96393 10.6068 8.96393 13C8.96393 15.3933 10.904 17.3334 13.2973 17.3334Z" fill="#00B6FF"/>
<path d="M0.333313 4.33333C0.333313 6.72655 2.27343 8.66667 4.66665 8.66667H8.99998V0H4.66665C2.27343 0 0.333313 1.94012 0.333313 4.33333Z" fill="#FF3737"/>
<path d="M0.333313 13C0.333313 15.3932 2.27343 17.3334 4.66665 17.3334H8.99998V8.66669H4.66665C2.27343 8.66669 0.333313 10.6068 0.333313 13Z" fill="#874FFF"/>
</svg>
