<svg width="24" height="24" viewBox="0 0 24 24" fill="none" xmlns="http://www.w3.org/2000/svg">
<path d="M22.8727 0.5H11.7969C11.7967 1.15656 11.926 1.80671 12.1772 2.41331C12.4284 3.01992 12.7966 3.57109 13.2609 4.03535C13.7251 4.4996 14.2763 4.86785 14.8829 5.11904C15.4895 5.37024 16.1397 5.49946 16.7962 5.49934H18.8371V7.46909C18.8381 8.79392 19.3648 10.0642 20.3016 11.001C21.2384 11.9378 22.5087 12.4645 23.8335 12.4655V1.46086C23.8335 1.20602 23.7323 0.961624 23.5521 0.781428C23.3719 0.601233 23.1275 0.5 22.8727 0.5Z" fill="#2684FF"/>
<path d="M17.3917 6.01807H6.31689C6.31791 7.3429 6.84465 8.61317 7.78145 9.54997C8.71824 10.4868 9.98852 11.0135 11.3134 11.0145H13.3532V12.991C13.355 14.3158 13.8825 15.5858 14.8198 16.5221C15.7572 17.4583 17.0278 17.9843 18.3526 17.9846V6.97892C18.3526 6.85274 18.3277 6.7278 18.2794 6.61122C18.2312 6.49464 18.1604 6.38872 18.0712 6.29949C17.9819 6.21027 17.876 6.13949 17.7594 6.09121C17.6429 6.04292 17.5179 6.01807 17.3917 6.01807Z" fill="#2684FF"/>
<path d="M11.9092 11.5335H0.833374C0.833374 12.8595 1.36006 14.1312 2.29759 15.0689C3.23512 16.0066 4.50672 16.5336 5.83271 16.5338H7.87934V18.5036C7.88035 19.8274 8.4063 21.0968 9.34185 22.0334C10.2774 22.9701 11.5462 23.4975 12.87 23.5V12.4944C12.87 12.3682 12.8452 12.2432 12.7969 12.1267C12.7486 12.0101 12.6778 11.9042 12.5886 11.8149C12.4994 11.7257 12.3934 11.6549 12.2769 11.6066C12.1603 11.5584 12.0353 11.5335 11.9092 11.5335Z" fill="#2684FF"/>
</svg>
