<svg width="14" height="14" viewBox="0 0 14 14" fill="none" xmlns="http://www.w3.org/2000/svg">
<path d="M3.33331 1.25C4.41166 1.25 5.28636 2.12556 5.28644 3.2041C5.28644 3.73591 5.07296 4.2179 4.72784 4.57031H5.1214V12.75H1.54523V4.57031H1.93781C1.59295 4.21782 1.38019 3.73561 1.38019 3.2041C1.38027 2.1262 2.25278 1.25001 3.33331 1.25Z" stroke="white" stroke-width="1.5"/>
<path d="M9.65808 4.40494C10.8937 4.40503 11.7941 4.82801 12.326 5.67154C12.8078 6.43579 12.8983 7.42102 12.8983 8.33658V12.7497H9.32312V8.75162C9.32312 8.55562 9.32206 8.37935 9.3075 8.21451C9.29279 8.04837 9.26646 7.93046 9.23523 7.85123C9.20657 7.7786 9.18401 7.76439 9.1825 7.76334C9.17949 7.76124 9.16904 7.75393 9.14343 7.74673C9.11648 7.73916 9.069 7.73013 8.99402 7.73013C8.82158 7.73014 8.73973 7.7637 8.70691 7.78189C8.67848 7.7977 8.65182 7.82123 8.62292 7.87369C8.54562 8.01427 8.49891 8.27445 8.4989 8.69595V12.7497H4.92371V4.56998H8.41492V4.65103C8.77709 4.49846 9.19352 4.40494 9.65808 4.40494Z" stroke="white" stroke-width="1.5"/>
</svg>
