<svg width="24" height="24" viewBox="0 0 24 24" fill="none" xmlns="http://www.w3.org/2000/svg">
<g clip-path="url(#clip0_42_207)">
<path d="M21.5873 0.5H3.07947C1.83898 0.5 0.833374 1.50561 0.833374 2.74609V21.2539C0.833374 22.4944 1.83898 23.5 3.07947 23.5H21.5873C22.8278 23.5 23.8334 22.4944 23.8334 21.2539V2.74609C23.8334 1.50561 22.8278 0.5 21.5873 0.5Z" fill="#3178C6"/>
<path d="M21.5873 0.5H3.07947C1.83898 0.5 0.833374 1.50561 0.833374 2.74609V21.2539C0.833374 22.4944 1.83898 23.5 3.07947 23.5H21.5873C22.8278 23.5 23.8334 22.4944 23.8334 21.2539V2.74609C23.8334 1.50561 22.8278 0.5 21.5873 0.5Z" fill="#3178C6"/>
<path fill-rule="evenodd" clip-rule="evenodd" d="M15.0709 18.8023V21.0511C15.4364 21.2385 15.8688 21.379 16.368 21.4727C16.8672 21.5664 17.3932 21.6133 17.9463 21.6133C18.4853 21.6133 18.9974 21.5618 19.4825 21.4587C19.9676 21.3556 20.3929 21.1858 20.7585 20.9492C21.1241 20.7126 21.4135 20.4034 21.6268 20.0215C21.84 19.6397 21.9467 19.1677 21.9467 18.6055C21.9467 18.1979 21.8857 17.8407 21.7639 17.5338C21.642 17.2269 21.4663 16.954 21.2366 16.7151C21.0069 16.4762 20.7316 16.2618 20.4105 16.072C20.0894 15.8823 19.7274 15.7031 19.3243 15.5345C19.029 15.4126 18.7642 15.2943 18.5299 15.1796C18.2955 15.0647 18.0963 14.9476 17.9323 14.8282C17.7682 14.7087 17.6417 14.5822 17.5526 14.4487C17.4636 14.3151 17.419 14.1641 17.419 13.9954C17.419 13.8408 17.4589 13.7014 17.5386 13.5773C17.6183 13.4531 17.7307 13.3465 17.876 13.2575C18.0213 13.1685 18.1994 13.0994 18.4103 13.0502C18.6213 13.001 18.8556 12.9764 19.1134 12.9764C19.3008 12.9764 19.4989 12.9905 19.7074 13.0186C19.916 13.0467 20.1257 13.09 20.3367 13.1486C20.5476 13.2071 20.7526 13.2809 20.9519 13.3699C21.151 13.459 21.335 13.562 21.5037 13.6792V11.5779C21.1616 11.4467 20.7878 11.3495 20.3824 11.2863C19.977 11.223 19.5118 11.1914 18.9868 11.1914C18.4525 11.1914 17.9463 11.2488 17.4683 11.3636C16.9902 11.4784 16.5696 11.6576 16.2063 11.9012C15.843 12.1448 15.556 12.4552 15.3451 12.8324C15.1342 13.2095 15.0287 13.6604 15.0287 14.1851C15.0287 14.8551 15.222 15.4267 15.6087 15.8999C15.9954 16.3731 16.5824 16.7736 17.3698 17.1016C17.6792 17.2281 17.9674 17.3522 18.2346 17.474C18.5017 17.5959 18.7326 17.7224 18.9271 17.8535C19.1216 17.9847 19.2751 18.1276 19.3876 18.2822C19.5001 18.4368 19.5563 18.6125 19.5563 18.8093C19.5563 18.9545 19.5211 19.0892 19.4508 19.2134C19.3805 19.3375 19.2739 19.4453 19.131 19.5366C18.988 19.628 18.8099 19.6994 18.5967 19.751C18.3834 19.8025 18.1338 19.8283 17.8479 19.8283C17.3604 19.8283 16.8777 19.7428 16.3996 19.5718C15.9216 19.4008 15.4786 19.1443 15.0709 18.8023ZM11.2903 13.2615H14.1752V11.416H6.13416V13.2615H9.00493V21.4785H11.2903V13.2615Z" fill="white"/>
</g>
<defs>
<clipPath id="clip0_42_207">
<rect width="23" height="23" fill="white" transform="translate(0.833374 0.5)"/>
</clipPath>
</defs>
</svg>
