<svg width="27" height="24" viewBox="0 0 27 24" fill="none" xmlns="http://www.w3.org/2000/svg">
<path d="M8.46926 0.535697C7.99796 0.535697 7.55023 0.653521 7.14962 0.88917C6.65476 1.19551 6.27772 1.69038 6.06564 2.2088C5.80643 2.84505 5.71217 3.552 5.6886 4.23538C5.66504 5.41362 5.85356 6.5683 6.13633 7.69941C5.61791 7.86437 5.09948 8.02932 4.58105 8.21784C3.73272 8.57131 2.88438 8.97192 2.15387 9.56104C1.63545 9.9852 1.14058 10.5272 0.904936 11.1634C0.692853 11.7054 0.692853 12.2946 0.881371 12.8366C1.04633 13.3314 1.37623 13.7791 1.75327 14.1326C2.22457 14.5804 2.743 14.9338 3.30855 15.2402C4.20402 15.7115 5.14661 16.0649 6.13633 16.3477C5.85356 17.5495 5.64147 18.7749 5.6886 20.0003C5.71217 20.613 5.80643 21.2492 6.06564 21.8148C6.25416 22.2625 6.53694 22.6867 6.91397 22.9694C7.29101 23.2758 7.73874 23.4407 8.21004 23.4879C8.72847 23.535 9.27046 23.4407 9.76532 23.2758C10.3309 23.0873 10.8729 22.8045 11.3913 22.4746C12.2161 21.9562 12.9701 21.3199 13.6771 20.6365C14.384 21.3199 15.1145 21.9326 15.9393 22.451C16.6227 22.8752 17.3532 23.2522 18.1544 23.4172C18.6493 23.5114 19.1677 23.5114 19.6626 23.3465C20.0867 23.2051 20.4873 22.9459 20.7701 22.616C21.1236 22.2154 21.3357 21.7205 21.4535 21.2021C21.6184 20.5658 21.6656 19.906 21.642 19.2462C21.5949 18.2565 21.4299 17.2667 21.1943 16.3242C22.2783 16.0178 23.3622 15.6172 24.352 15.0281C24.9882 14.651 25.5773 14.2033 26.0015 13.6142C26.355 13.1429 26.5906 12.6009 26.5906 12.0118C26.5906 11.4698 26.4021 10.9278 26.0958 10.5036C25.6716 9.86738 25.0589 9.39608 24.4227 8.99548C23.4329 8.40636 22.3254 7.98219 21.2178 7.65228C21.5242 6.45048 21.7127 5.20154 21.6656 3.97617C21.642 3.36348 21.5242 2.72723 21.2885 2.16167C21.1 1.71394 20.8172 1.28977 20.4166 1.00699C20.0396 0.724216 19.5683 0.559262 19.097 0.512132C18.6021 0.465002 18.1073 0.559262 17.636 0.724216C17.0469 0.912735 16.5049 1.21908 15.9864 1.54899C15.1852 2.06741 14.4312 2.70366 13.7478 3.36348C12.9937 2.63297 12.1925 1.97315 11.3206 1.43116C10.6608 1.03056 9.93028 0.677086 9.12907 0.559262C8.94055 0.535697 8.7756 0.512132 8.58708 0.512132L8.46926 0.535697ZM8.51639 1.64325C8.86986 1.64325 9.19977 1.7375 9.52967 1.85533C10.3544 2.16167 11.0614 2.65653 11.7448 3.19853C12.1218 3.50487 12.4988 3.83478 12.8523 4.18825C12.0511 5.03658 11.3442 5.95561 10.6608 6.89821C9.50611 7.01603 8.32787 7.18099 7.19675 7.4402C7.0318 6.75682 6.89041 6.07344 6.81972 5.39006C6.74902 4.75381 6.74902 4.11756 6.84328 3.50487C6.91397 3.12783 7.00823 2.72723 7.22032 2.39732C7.40884 2.06741 7.71518 1.8082 8.06865 1.71394C8.23361 1.66681 8.375 1.66681 8.53995 1.66681L8.51639 1.64325ZM18.7671 1.64325C19.0263 1.64325 19.262 1.69037 19.4976 1.8082C19.8511 1.99672 20.0867 2.35019 20.2281 2.70366C20.4402 3.22209 20.4873 3.81121 20.4873 4.37677C20.4873 5.41362 20.3224 6.45048 20.0632 7.4402C18.9321 7.18099 17.7538 7.01603 16.5991 6.89821C15.9157 5.95561 15.2088 5.03658 14.4076 4.18825C15.091 3.52843 15.8451 2.89218 16.6698 2.37376C17.1883 2.06741 17.7302 1.8082 18.3194 1.69037C18.4608 1.66681 18.6257 1.64325 18.7671 1.64325ZM13.63 4.96589C14.172 5.55501 14.6668 6.1677 15.1617 6.78038C14.1484 6.73325 13.1351 6.73325 12.1218 6.78038C12.5931 6.14413 13.1115 5.53145 13.6535 4.96589H13.63ZM13.63 7.86437C14.4076 7.86437 15.2088 7.88793 15.9864 7.95863C16.8819 9.25469 17.6595 10.645 18.3665 12.0589C17.6831 13.4728 16.9055 14.8631 15.9864 16.1592C14.4312 16.277 12.8523 16.277 11.297 16.1592C10.4016 14.8631 9.60037 13.4728 8.91699 12.0589C9.60037 10.645 10.4016 9.25469 11.297 7.95863C12.0747 7.9115 12.8759 7.86437 13.6535 7.86437H13.63ZM9.85958 8.10002C9.31759 8.97192 8.79916 9.84382 8.32787 10.7628C8.02152 10.0323 7.73874 9.27826 7.5031 8.52418C8.28074 8.33566 9.08194 8.21784 9.85958 8.12358V8.10002ZM17.4003 8.10002C18.2015 8.19428 18.9792 8.33566 19.7568 8.52418C19.5212 9.27826 19.2384 10.0323 18.9321 10.7864C18.4608 9.89095 17.9423 8.99548 17.4003 8.12358V8.10002ZM6.41911 8.7834C6.77259 9.89095 7.19675 10.9985 7.69162 12.0589C7.19675 13.1193 6.77259 14.2269 6.41911 15.3344C5.35869 15.0281 4.32184 14.651 3.37925 14.0619C2.93151 13.7791 2.48378 13.4257 2.15387 12.9779C1.91823 12.648 1.77684 12.2239 1.84753 11.8233C1.94179 11.3284 2.29526 10.9042 2.6723 10.5743C3.30855 10.0323 4.06263 9.6553 4.8167 9.32539C5.33513 9.11331 5.87712 8.92479 6.41911 8.7834ZM20.8172 8.7834C21.8305 9.06618 22.8203 9.44321 23.7157 9.96164C24.1634 10.2209 24.5876 10.5272 24.9175 10.9042C25.1767 11.187 25.3888 11.5641 25.4124 11.9411C25.436 12.3181 25.2946 12.6716 25.0825 12.9779C24.7997 13.3785 24.3991 13.7085 23.9985 13.9677C23.0323 14.6039 21.9484 15.0045 20.8408 15.3109C20.4873 14.2033 20.0632 13.0958 19.5683 12.0353C20.0632 10.9749 20.4873 9.89095 20.8408 8.75983L20.8172 8.7834ZM18.9321 13.355C19.2384 14.0855 19.5212 14.8396 19.7568 15.6172C18.9792 15.8057 18.178 15.9235 17.4003 16.0414C17.9659 15.1695 18.4608 14.2976 18.9321 13.3785V13.355ZM8.32787 13.355C8.79916 14.274 9.31759 15.1459 9.85958 16.0178C9.05838 15.9235 8.28074 15.7822 7.5031 15.6172C7.73874 14.8631 8.02152 14.1091 8.32787 13.355ZM20.0632 16.6776C20.2988 17.5967 20.4638 18.5157 20.4873 19.4583C20.5109 20.0474 20.4638 20.6365 20.2988 21.2021C20.181 21.5791 19.9925 21.9562 19.6626 22.2154C19.3562 22.451 18.9792 22.5217 18.6257 22.4746C18.0602 22.4275 17.5417 22.2154 17.0469 21.9562C16.0807 21.4377 15.2324 20.7072 14.4312 19.9531C15.2088 19.1284 15.9157 18.2565 16.552 17.3374C16.5756 17.3139 16.5991 17.2432 16.6463 17.2432C17.8009 17.1254 18.9556 16.9604 20.0867 16.7012L20.0632 16.6776ZM7.19675 16.6776C8.35143 16.9368 9.50611 17.1018 10.6608 17.2196C11.3442 18.1622 12.0747 19.0812 12.8523 19.9531C12.1454 20.6365 11.3913 21.2728 10.5665 21.7912C10.0481 22.0975 9.50611 22.3568 8.91699 22.4746C8.53995 22.5453 8.11578 22.5217 7.76231 22.3332C7.40884 22.1447 7.17319 21.7912 7.0318 21.4142C6.84328 20.8957 6.77259 20.3302 6.77259 19.7646C6.77259 18.7278 6.9611 17.7145 7.19675 16.7248V16.6776ZM12.0982 17.3139C13.1115 17.361 14.1248 17.361 15.1617 17.3139C14.6904 17.9501 14.172 18.5628 13.63 19.1519C13.088 18.5628 12.5931 17.9501 12.0982 17.3374V17.3139Z" fill="#61DAFB"/>
<path d="M13.4179 9.74956C13.8656 9.70244 14.3133 9.79669 14.7139 10.0088C15.1852 10.268 15.5623 10.6686 15.7508 11.1635C15.9864 11.729 15.9864 12.3888 15.7508 12.9544C15.4444 13.732 14.6904 14.2976 13.8656 14.3683C13.3707 14.4154 12.8287 14.2976 12.4046 14.0384C11.9333 13.7556 11.5798 13.2843 11.4149 12.7659C11.2263 12.2003 11.297 11.5641 11.5562 11.0221C11.9097 10.3151 12.6402 9.82026 13.4179 9.77313V9.74956Z" fill="#61DAFB"/>
</svg>
