<svg width="48" height="48" viewBox="0 0 48 48" fill="none" xmlns="http://www.w3.org/2000/svg">
<circle cx="24" cy="24" r="24" fill="#FF7700"/>
<path d="M1.63987 27V21.5455H5.36324V22.6161H2.95823V23.7347H5.1262V24.8081H2.95823V27H1.63987ZM6.02708 27V21.5455H8.28027C8.68865 21.5455 9.0411 21.6191 9.33762 21.7665C9.63592 21.9121 9.86586 22.1216 10.0274 22.3951C10.189 22.6667 10.2698 22.989 10.2698 23.3619C10.2698 23.7401 10.1872 24.0614 10.0221 24.326C9.85698 24.5888 9.6226 24.7894 9.31898 24.9279C9.01536 25.0646 8.65581 25.133 8.24032 25.133H6.81543V24.0943H7.99529C8.19416 24.0943 8.36017 24.0685 8.49334 24.017C8.62828 23.9638 8.73038 23.8839 8.79963 23.7773C8.86887 23.669 8.9035 23.5305 8.9035 23.3619C8.9035 23.1932 8.86887 23.0538 8.79963 22.9437C8.73038 22.8319 8.62828 22.7484 8.49334 22.6934C8.3584 22.6365 8.19238 22.6081 7.99529 22.6081H7.34544V27H6.02708ZM9.09792 24.5071L10.4562 27H9.01802L7.68635 24.5071H9.09792ZM10.9929 27V21.5455H14.7962V22.6161H12.3113V23.7347H14.6017V24.8081H12.3113V25.9293H14.7962V27H10.9929ZM15.6218 27V21.5455H19.4251V22.6161H16.9402V23.7347H19.2306V24.8081H16.9402V25.9293H19.4251V27H15.6218ZM20.2507 27V21.5455H21.5691V25.9293H23.8382V27H20.2507ZM25.7738 27H24.3569L26.1973 21.5455H27.9525L29.7928 27H28.3759L27.0949 22.9197H27.0522L25.7738 27ZM25.5847 24.8533H28.5464V25.8548H25.5847V24.8533ZM35.0223 21.5455V27H33.9037L31.7331 23.8519H31.6985V27H30.3801V21.5455H31.5147L33.6614 24.6882H33.7066V21.5455H35.0223ZM40.8025 23.5217H39.4708C39.453 23.3849 39.4166 23.2615 39.3616 23.1515C39.3066 23.0414 39.2338 22.9473 39.1432 22.8691C39.0526 22.791 38.9452 22.7315 38.8209 22.6907C38.6984 22.6481 38.5626 22.6268 38.4134 22.6268C38.1489 22.6268 37.9207 22.6916 37.729 22.8212C37.539 22.9508 37.3925 23.1381 37.2895 23.3832C37.1883 23.6282 37.1377 23.9247 37.1377 24.2727C37.1377 24.6349 37.1892 24.9386 37.2922 25.1836C37.3969 25.4268 37.5434 25.6106 37.7316 25.7349C37.9216 25.8574 38.1462 25.9187 38.4055 25.9187C38.551 25.9187 38.6833 25.9 38.8023 25.8627C38.923 25.8255 39.0287 25.7713 39.1192 25.7003C39.2116 25.6275 39.287 25.5396 39.3456 25.4366C39.406 25.3319 39.4477 25.2138 39.4708 25.0824L40.8025 25.0904C40.7794 25.3319 40.7093 25.5698 40.5921 25.8042C40.4767 26.0385 40.3177 26.2525 40.1153 26.446C39.9129 26.6378 39.6661 26.7905 39.3749 26.9041C39.0855 27.0178 38.7535 27.0746 38.3788 27.0746C37.8852 27.0746 37.4431 26.9663 37.0525 26.7496C36.6636 26.5312 36.3564 26.2134 36.1309 25.7962C35.9055 25.3789 35.7927 24.8711 35.7927 24.2727C35.7927 23.6726 35.9072 23.1639 36.1363 22.7466C36.3653 22.3294 36.6752 22.0124 37.0658 21.7958C37.4564 21.5792 37.8941 21.4709 38.3788 21.4709C38.7091 21.4709 39.0145 21.517 39.295 21.6094C39.5756 21.6999 39.8224 21.8331 40.0354 22.0089C40.2485 22.1829 40.4216 22.3968 40.5548 22.6507C40.6879 22.9047 40.7705 23.195 40.8025 23.5217ZM41.5569 27V21.5455H45.3601V22.6161H42.8752V23.7347H45.1657V24.8081H42.8752V25.9293H45.3601V27H41.5569Z" fill="white"/>
</svg>
