<svg width="25" height="24" viewBox="0 0 25 24" fill="none" xmlns="http://www.w3.org/2000/svg">
<path fill-rule="evenodd" clip-rule="evenodd" d="M12.6763 0.499939C6.204 0.499939 0.971741 5.77077 0.971741 12.2915C0.971741 17.5039 4.32423 21.9161 8.97502 23.4777C9.55649 23.5951 9.76948 23.2239 9.76948 22.9118C9.76948 22.6384 9.75031 21.7014 9.75031 20.7251C6.49438 21.428 5.81636 19.3195 5.81636 19.3195C5.29311 17.9529 4.51781 17.6016 4.51781 17.6016C3.45215 16.8793 4.59544 16.8793 4.59544 16.8793C5.77754 16.9574 6.39782 18.0897 6.39782 18.0897C7.44409 19.8856 9.13003 19.3781 9.80829 19.0657C9.90508 18.3043 10.2153 17.7773 10.5448 17.4845C7.94793 17.2111 5.21572 16.196 5.21572 11.6667C5.21572 10.3782 5.68051 9.32403 6.41699 8.50418C6.30079 8.21141 5.89374 7.00079 6.53343 5.38049C6.53343 5.38049 7.52171 5.06807 9.75007 6.59087C10.7041 6.33275 11.688 6.20145 12.6763 6.20035C13.6646 6.20035 14.6721 6.33715 15.6024 6.59087C17.831 5.06807 18.8193 5.38049 18.8193 5.38049C19.459 7.00079 19.0517 8.21141 18.9355 8.50418C19.6913 9.32403 20.137 10.3782 20.137 11.6667C20.137 16.196 17.4048 17.1915 14.7885 17.4845C15.215 17.8554 15.583 18.5581 15.583 19.6709C15.583 21.2522 15.5638 22.5212 15.5638 22.9115C15.5638 23.2239 15.777 23.5951 16.3583 23.4779C21.0091 21.9158 24.3615 17.5039 24.3615 12.2915C24.3807 5.77077 19.1293 0.499939 12.6763 0.499939Z" fill="white"/>
</svg>
