<svg width="24" height="14" viewBox="0 0 24 14" fill="none" xmlns="http://www.w3.org/2000/svg">
<path fill-rule="evenodd" clip-rule="evenodd" d="M12 0.0999756C8.93333 0.0999756 7.01667 1.63331 6.25 4.69998C7.4 3.16664 8.74167 2.59164 10.275 2.97498C11.1499 3.19348 11.7751 3.82853 12.4672 4.53088C13.5947 5.67535 14.8997 6.99998 17.75 6.99998C20.8167 6.99998 22.7333 5.46664 23.5 2.39998C22.35 3.93331 21.0083 4.50831 19.475 4.12498C18.6001 3.90648 17.9749 3.27142 17.2828 2.56907C16.1553 1.42461 14.8503 0.0999756 12 0.0999756ZM6.25 6.99998C3.18333 6.99998 1.26667 8.53331 0.5 11.6C1.65 10.0666 2.99167 9.49164 4.525 9.87498C5.39985 10.0939 6.02511 10.7285 6.71724 11.4309C7.84467 12.5753 9.1497 13.9 12 13.9C15.0667 13.9 16.9833 12.3666 17.75 9.29998C16.6 10.8333 15.2583 11.4083 13.725 11.025C12.8501 10.8065 12.2249 10.1714 11.5328 9.46907C10.4053 8.3246 9.1003 6.99998 6.25 6.99998Z" fill="#38BDF8"/>
</svg>
